<svg id="bosch-text-svg" xmlns="http://www.w3.org/2000/svg" viewBox="0 0 504.03 109.27">
  <defs>
    <style>
      .cls-1 {
        fill: #e20015;
      }
    </style>
  </defs>
  <title>Untitled-1</title>
  <path class="cls-1"
    d="M6.52,110.93V5l48,0c10.94,0,19.72,2.2,26.33,7.6,5.73,4.69,8.91,12.3,8.91,21.13,0,5.57-.89,10-3.09,13.46s-3.93,5.32-9.23,8.5c6.08,2.67,9.38,5.45,12.26,9.29s4,10.88,4,15.55c0,9.41-3.37,17.64-10.16,22.9-6.34,4.93-15.34,7.68-27.42,7.49ZM32.15,46.7H53.24c8.45,0,11.12-4.31,11.12-10.66s-3-10.47-12.13-10.47H32.15Zm0,43.67H54.39c4.8,0,13.52-1.14,13.52-12.28C67.91,71,64.09,66,53.53,66H32.15Z"
    transform="translate(-6.52 -3.37)" />
  <path class="cls-1"
    d="M156.21,3.37q22.24,0,36.55,15.27t14.31,39q0,24.32-14.39,39.66t-37.36,15.35q-22.68,0-36.91-15.12T104.17,58.23q0-24,14.61-39.44T156.21,3.37ZM156,25.85c-7.81,0-14,2.37-18.42,8.09s-6.54,13.77-6.54,24.13q0,15.27,6.54,23.93a22.18,22.18,0,0,0,18.29,9.16,21.3,21.3,0,0,0,17.84-9.09q6.41-8.59,6.41-24,0-15.14-6.54-23.92C169.25,28.28,163.5,25.85,156,25.85Z"
    transform="translate(-6.52 -3.37)" />
  <path class="cls-1"
    d="M214.28,85.63,237,76c2.11,5.28,4.55,10.07,9.63,12.76,3.84,2,7.38,2.68,13.14,2.68s9.38-1.24,12-3.19a9,9,0,0,0,4.07-7.86c0-3.46-1.23-5.78-4-7.34s-6.88-2.89-14.37-4.61c-8.35-1.92-14.1-3.45-18.05-4.8a36.6,36.6,0,0,1-9.64-5.14c-6.3-4.4-10.3-11.81-10.33-21.66s3.08-18.14,10-24.16c6.5-5.65,15.32-9.06,28.09-9.08C276.15,3.55,291,10.7,299.21,27L278,37.08c-3.22-5.68-5.72-8.2-8.86-10-2.18-1.28-7-2.39-11.51-2.32s-7.8.74-10.56,3a8.33,8.33,0,0,0-2.65,7.4c.52,4.66,3.87,5.86,5.07,6.46,2.93,1.28,6,2.16,12.83,3.59,13.15,2.72,21.22,5.57,27.3,9.49,10,7.42,12.1,17.11,11.59,26.25-.57,10.36-4.13,17.7-11.79,23.59-7.1,5.46-17.41,8.06-30.46,8.06-10.75,0-20.51-2.41-27.43-6.35S218.31,95.3,214.28,85.63Zm75.13,18.9c-7,5.57-17.2,6.54-30.26,6.54"
    transform="translate(-6.52 -3.37)" />
  <path class="cls-1"
    d="M385.19,71l23.4,9.52c-4.31,10.94-9.82,18.36-16.34,23.1q-11.72,8.87-29,8.87-23.26,0-37-14.72T312.38,58.29q0-24.26,14-39.58T362.76,3.4q20.3,0,32.45,11.69c4.15,4.05,8.64,10.86,12.24,19.43L384.19,44c-2.7-6.63-4.64-11.41-8.62-14.73a21,21,0,0,0-14.68-4.26c-6.16.42-12.65,2.65-17.26,11-3.63,6.6-4.34,16-4.34,21.76,0,11.44,2.27,19.73,6.39,25.08,3.64,4.72,9.13,8.06,17.53,8.06,5.82,0,9.76-1.57,12.46-4C380.37,82.67,382.72,78,385.19,71Z"
    transform="translate(-6.52 -3.37)" />
  <path class="cls-1" d="M422.18,111.12V4.89h26V46.7h36.13V4.89h26.23V111.12H484.33V68.3H448.2v42.82Z"
    transform="translate(-6.52 -3.37)" />
</svg>