<svg
  id="bosch-text-svg"
  xmlns="http://www.w3.org/2000/svg"
  viewBox="0 0 250.48 53.06"
>
  <defs>
    <style>
      .cls-1 {
        fill: #e20015;
      }
    </style>
  </defs>
  <path
    class="cls-1"
    d="M2.27,54.23V2.75H25.52q8.22,0,12.53,3.49t4.32,10.11a12.28,12.28,0,0,1-1.65,6.74,12.78,12.78,0,0,1-5.62,4.35c3.26,1.11,5.62,2.62,7.06,4.54a12.66,12.66,0,0,1,2.16,7.77q0,7.06-4.61,10.77T26.32,54.23Zm11.3-30.67H24.88q6.33,0,6.33-6t-6.84-6H13.57Zm0,21.88H25.45A7.89,7.89,0,0,0,31,43.64a6.63,6.63,0,0,0,1.94-5.11q0-6.76-7.92-6.77H13.57Z"
    transform="translate(-2.27 -1.96)"
  />
  <path
    class="cls-1"
    d="M76.35,2A23.26,23.26,0,0,1,94.1,9.37q6.95,7.43,7,18.94,0,11.81-7,19.26T75.92,55q-11,0-17.93-7.34T51.08,28.6q0-11.67,7.09-19.16T76.35,2Zm-.14,9.28a11.43,11.43,0,0,0-9.65,4.54q-3.45,4.53-3.45,12.74t3.45,12.64a11.34,11.34,0,0,0,9.58,4.57,11.14,11.14,0,0,0,9.5-4.54Q89,36.66,89,28.52T85.57,15.89A11,11,0,0,0,76.21,11.24Z"
    transform="translate(-2.27 -1.96)"
  />
  <path
    class="cls-1"
    d="M106.38,42.71l9.93-4.25a11.69,11.69,0,0,0,4.32,5.72A12.81,12.81,0,0,0,127.69,46a11.75,11.75,0,0,0,6.77-1.7,5.34,5.34,0,0,0,2.45-4.64A4.5,4.5,0,0,0,135,35.69q-1.87-1.34-7.48-2.63-6.27-1.44-8.86-2.31a17.29,17.29,0,0,1-4.46-2.15q-5.55-3.6-5.55-10.81t4.9-11.55Q118.47,2,127,2q14,0,19.87,10.65l-9.29,4.4a11.77,11.77,0,0,0-4.24-4.65A12.8,12.8,0,0,0,127,11.1a8.86,8.86,0,0,0-5.43,1.44,4.82,4.82,0,0,0-1.91,4.1,4.24,4.24,0,0,0,1.94,3.75q2,1.29,7,2.3,9.85,2,13.68,4.54,5.82,3.89,5.83,11.66t-5.26,12q-5.25,4.19-15,4.18-8.06,0-13.24-3A20.27,20.27,0,0,1,106.38,42.71Z"
    transform="translate(-2.27 -1.96)"
  />
  <path
    class="cls-1"
    d="M191.26,35.94l10.3,4.18q-2.88,7.13-7.63,10.58Q188.24,55,179.82,55q-11.31,0-18-7.17t-6.7-19.18q0-11.8,6.8-19.26T179.6,2q9.87,0,15.77,5.68A28.54,28.54,0,0,1,201,16.35l-10.22,4.18q-1.8-5-4.43-7.13a10.36,10.36,0,0,0-6.8-2.16,10.6,10.6,0,0,0-9.18,4.47q-3.21,4.45-3.21,12.74t3.28,12.82a11,11,0,0,0,9.4,4.46,10.21,10.21,0,0,0,6.94-2.34A17.25,17.25,0,0,0,191.26,35.94Z"
    transform="translate(-2.27 -1.96)"
  />
  <path
    class="cls-1"
    d="M210.13,54.23V2.75h11.52V23.63h19.58V2.75h11.52V54.23H241.23V32.92H221.65V54.23Z"
    transform="translate(-2.27 -1.96)"
  />
</svg>
